<?xml version="1.0" encoding="UTF-8" standalone="no"?>
<svg
   width="64"
   height="64"
   viewBox="0 0 64 64"
   fill="none"
   version="1.1"
   id="svg25"
   sodipodi:docname="docker-jellyfin.svg"
   inkscape:version="1.2.2 (b0a8486541, 2022-12-01)"
   xmlns:inkscape="http://www.inkscape.org/namespaces/inkscape"
   xmlns:sodipodi="http://sodipodi.sourceforge.net/DTD/sodipodi-0.dtd"
   xmlns="http://www.w3.org/2000/svg"
   xmlns:svg="http://www.w3.org/2000/svg">
  <sodipodi:namedview
     id="namedview27"
     pagecolor="#ffffff"
     bordercolor="#666666"
     borderopacity="1.0"
     inkscape:showpageshadow="2"
     inkscape:pageopacity="0.0"
     inkscape:pagecheckerboard="0"
     inkscape:deskcolor="#d1d1d1"
     showgrid="false"
     inkscape:zoom="7.6335229"
     inkscape:cx="14.737625"
     inkscape:cy="32.750278"
     inkscape:window-width="1920"
     inkscape:window-height="1044"
     inkscape:window-x="0"
     inkscape:window-y="36"
     inkscape:window-maximized="1"
     inkscape:current-layer="svg25" />
  <g
     id="g336"
     transform="matrix(3.2000023,0,0,3.2000011,-6.3999931,-6.3999979)">
    <path
       fill-rule="evenodd"
       clip-rule="evenodd"
       d="M 9.81458,2.10326 C 9.92353,2.10442 10.0277,2.09054 10.127,2.06163 c 1.3052,-0.08551 2.6104,-0.08204 3.9155,0.01041 1.1833,0.0922 2.3288,0.34895 3.4365,0.77023 1.8415,0.75813 3.1015,2.07309 3.7801,3.94487 0.3881,1.12694 0.6172,2.28578 0.6873,3.47646 0.097,1.4952 0.0623,2.9871 -0.1041,4.4757 -0.1246,1.0463 -0.3953,2.0525 -0.8123,3.0185 -0.7733,1.675 -2.0263,2.8304 -3.7593,3.4661 -1.4042,0.4745 -2.8483,0.7243 -4.332,0.7494 C 11.2697,22.0601 9.61739,21.9352 7.98179,21.5986 4.97127,20.928 3.11417,19.0926 2.41052,16.0924 2.11192,14.7419 1.97654,13.3749 2.00439,11.9915 1.97107,10.5204 2.12727,9.07008 2.47301,7.64065 3.21065,4.83553 4.99136,3.09728 7.81518,2.42593 8.47317,2.26506 9.13964,2.15751 9.81458,2.10326 Z"
       fill="url(#paint0_linear_3_6)"
       id="path2"
       style="fill:url(#paint0_linear_3_6)" />
    <path
       d="m 12.0011,10.3642 c -0.6148,0 -2.59423,3.5885 -2.29221,4.1944 0.30201,0.6058 4.28611,0.5992 4.58451,0 0.2984,-0.5992 -1.6774,-4.1941 -2.2923,-4.1944 z"
       fill="url(#paint1_linear_3_6)"
       id="path4"
       style="fill:url(#paint1_linear_3_6)" />
    <path
       d="m 12.0012,5 c -1.8528,0 -7.81688,10.8124 -6.9075,12.6384 0.90938,1.826 12.9155,1.8049 13.8149,0 C 19.8081,15.8335 13.8536,5 12.0012,5 Z m 4.5267,11.054 c -0.5893,1.1831 -8.45547,1.1963 -9.0517,0 -0.59623,-1.1964 3.312,-8.28103 4.5259,-8.28103 1.2138,0 5.1151,7.09753 4.5258,8.28103 z"
       fill="url(#paint2_linear_3_6)"
       id="path6"
       style="fill:url(#paint2_linear_3_6)" />
  </g>
  <defs
     id="defs23">
    <linearGradient
       id="paint0_linear_3_6"
       x1="12"
       y1="2"
       x2="12"
       y2="12"
       gradientUnits="userSpaceOnUse">
      <stop
         stop-color="#1C2E59"
         id="stop8" />
      <stop
         offset="1"
         stop-color="#000B25"
         id="stop10" />
    </linearGradient>
    <linearGradient
       id="paint1_linear_3_6"
       x1="7.45363"
       y1="10.7156"
       x2="19.062"
       y2="17.417601"
       gradientUnits="userSpaceOnUse">
      <stop
         stop-color="#AA5CC3"
         id="stop13" />
      <stop
         offset="1"
         stop-color="#00A4DC"
         id="stop15" />
    </linearGradient>
    <linearGradient
       id="paint2_linear_3_6"
       x1="7.45364"
       y1="10.7156"
       x2="19.062"
       y2="17.417601"
       gradientUnits="userSpaceOnUse">
      <stop
         stop-color="#AA5CC3"
         id="stop18" />
      <stop
         offset="1"
         stop-color="#00A4DC"
         id="stop20" />
    </linearGradient>
  </defs>
</svg>
